<svg width="20" height="20" viewBox="0 0 20 20" fill="none" xmlns="http://www.w3.org/2000/svg">
<path d="M10.1529 5.39997C11.59 5.39997 12.5593 6.0083 13.1121 6.51666L15.2719 4.44999C13.9454 3.24167 12.2192 2.5 10.1529 2.5C7.15969 2.5 4.57465 4.18331 3.31616 6.63329L5.79064 8.51664C6.41144 6.70831 8.12911 5.39997 10.1529 5.39997Z" fill="#EB4335"/>
<path d="M5.79927 11.4833C5.63771 11.0166 5.54421 10.5166 5.54421 9.99997C5.54421 9.48327 5.63771 8.98329 5.79077 8.51663L5.78649 8.41725L3.39456 6.5968L3.3163 6.63328C2.79762 7.64996 2.5 8.79164 2.5 9.99997C2.5 11.2083 2.79762 12.3499 3.3163 13.3666L5.79927 11.4833Z" fill="#FBBC05"/>
<path d="M10.1529 17.5C12.2191 17.5 13.9538 16.8333 15.2208 15.6833L12.8059 13.8499C12.1596 14.2916 11.2923 14.5999 10.1529 14.5999C8.12908 14.5999 6.41142 13.2916 5.79912 11.4833L5.70937 11.4907L3.34706 13.2824L3.31616 13.3666C4.57464 15.8166 7.15966 17.5 10.1529 17.5Z" fill="#34A853"/>
<path d="M17.5003 10.1665C17.5003 9.54984 17.4493 9.09984 17.3388 8.63318H10.1534V11.4165H14.3711C14.2861 12.1082 13.8269 13.1498 12.8065 13.8498L12.7922 13.943L15.064 15.6678L15.2214 15.6832C16.667 14.3748 17.5003 12.4498 17.5003 10.1665Z" fill="#4285F4"/>
</svg>
