<svg width="24" height="24" viewBox="0 0 24 24" fill="none" xmlns="http://www.w3.org/2000/svg">
<path d="M11.5103 3.39973C11.6192 2.86676 12.3808 2.86676 12.4897 3.39973L13.3372 7.54596C13.658 9.11548 14.8845 10.342 16.454 10.6628L20.6003 11.5103C21.1332 11.6192 21.1332 12.3808 20.6003 12.4897L16.454 13.3372C14.8845 13.658 13.658 14.8845 13.3372 16.454L12.4897 20.6003C12.3808 21.1332 11.6192 21.1332 11.5103 20.6003L10.6628 16.454C10.342 14.8845 9.11548 13.658 7.54596 13.3372L3.39973 12.4897C2.86676 12.3808 2.86676 11.6192 3.39973 11.5103L7.54596 10.6628C9.11548 10.342 10.342 9.11548 10.6628 7.54596L11.5103 3.39973Z" fill="#19191C"/>
<path fill-rule="evenodd" clip-rule="evenodd" d="M21 16.3641C20.7187 16.9432 20.3832 17.491 20 18.001C19.9995 19.1048 19.1048 19.9995 18.001 20C17.491 20.3832 16.9432 20.7187 16.3641 21H18C19.6569 21 21 19.6569 21 18V16.3641ZM7.63587 21C7.05683 20.7187 6.50901 20.3832 5.99902 20C4.89522 19.9995 4.00053 19.1048 4 18.001C3.61684 17.491 3.2813 16.9432 3 16.3641V18C3 19.6569 4.34315 21 6 21H7.63587ZM21 7.63587V6C21 4.34315 19.6569 3 18 3H16.3641C16.9432 3.2813 17.491 3.61684 18.001 4C19.1048 4.00053 19.9995 4.89522 20 5.99902C20.3832 6.50901 20.7187 7.05683 21 7.63587ZM5.99902 4C6.50901 3.61683 7.05683 3.2813 7.63587 3H6C4.34315 3 3 4.34315 3 6V7.63587C3.2813 7.05683 3.61683 6.50901 4 5.99902C4.00053 4.89523 4.89523 4.00053 5.99902 4Z" fill="#19191C"/>
</svg>
